HIERARCHY
ROOT hip
{
	OFFSET 0.000000 0.000000 0.000000 
	CHANNELS 6 Xposition Yposition Zposition Xrotation Zrotation Yrotation
	JOINT abdomen
	{
		OFFSET 0.000000 3.402643 0.000000 
		CHANNELS 3 Xrotation Zrotation Yrotation
		JOINT chest
		{
			OFFSET 0.000000 8.438565 -0.680529 
			CHANNELS 3 Xrotation Zrotation Yrotation
			JOINT neck
			{
				OFFSET 0.000000 10.207942 -0.272212 
				CHANNELS 3 Xrotation Zrotation Yrotation
				JOINT head
				{
					OFFSET 0.000000 3.130431 0.000000 
					CHANNELS 3 Xrotation Zrotation Yrotation
					End Site
					{
						OFFSET 0.000000 3.130435 0.000000 
					}
				}
			}
			JOINT lCollar
			{
				OFFSET 3.470700 6.669187 -0.816635 
				CHANNELS 3 Yrotation Zrotation Xrotation
				JOINT lShldr
				{
					OFFSET 3.198488 0.000000 0.000000 
					CHANNELS 3 Zrotation Yrotation Xrotation
					JOINT lForeArm
					{
						OFFSET 10.139888 0.000000 0.000000 
						CHANNELS 3 Yrotation Zrotation Xrotation
						JOINT lHand
						{
							OFFSET 8.370511 0.000000 0.000000 
							CHANNELS 3 Zrotation Yrotation Xrotation
							End Site
							{
								OFFSET 4.083176 0.000000 0.000000 
							}
						}
					}
				}
			}
			JOINT rCollar
			{
				OFFSET -3.470700 6.669187 -0.816635 
				CHANNELS 3 Yrotation Zrotation Xrotation
				JOINT rShldr
				{
					OFFSET -3.198488 0.000000 0.000000 
					CHANNELS 3 Zrotation Yrotation Xrotation
					JOINT rForeArm
					{
						OFFSET -10.139888 0.000000 0.000000 
						CHANNELS 3 Yrotation Zrotation Xrotation
						JOINT rHand
						{
							OFFSET -8.370511 0.000000 0.000000 
							CHANNELS 3 Zrotation Yrotation Xrotation
							End Site
							{
								OFFSET -4.083176 0.000000 0.000000 
							}
						}
					}
				}
			}
		}
	}
	JOINT lThigh
	{
		OFFSET 5.308129 -1.633274 1.361059 
		CHANNELS 3 Xrotation Zrotation Yrotation
		JOINT lShin
		{
			OFFSET -2.041588 -20.007561 0.000000 
			CHANNELS 3 Xrotation Zrotation Yrotation
			JOINT lFoot
			{
				OFFSET 0.000000 -19.190928 -1.224953 
				CHANNELS 3 Xrotation Yrotation Zrotation
				End Site
				{
					OFFSET 0.000000 -2.449906 4.627600 
				}
			}
		}
	}
	JOINT rThigh
	{
		OFFSET -5.308129 -1.633274 1.361059 
		CHANNELS 3 Xrotation Zrotation Yrotation
		JOINT rShin
		{
			OFFSET 2.041588 -20.007561 0.000000 
			CHANNELS 3 Xrotation Zrotation Yrotation
			JOINT rFoot
			{
				OFFSET 0.000000 -19.190928 -1.224953 
				CHANNELS 3 Xrotation Yrotation Zrotation
				End Site
				{
					OFFSET 0.000000 -2.449906 4.627600 
				}
			}
		}
	}
}
MOTION
Frames: 9
Frame Time: 0.033333
-62.143951 51.928001 67.575310 1.406250 2.275391 -28.593365 45.248310 -8.509627 -2.685349 -11.767578 12.158203 8.730469 51.553619 8.070152 2.616707 -79.912109 -8.388671 -4.474081 2.000000 -2.000000 0.000000 -34.355465 -6.181641 -27.647535 -48.341106 -1.551093 -1.656404 -37.456936 44.296169 -26.424807 -2.000000 2.000000 0.000000 43.876953 -24.335938 -32.435665 50.642391 1.380504 -2.253576 37.575241 -40.643406 -24.475750 1.981663 9.749209 -10.508068 11.463026 -5.627520 -1.511697 -10.407293 5.869233 -11.033534 -20.350368 -10.360637 -7.828407 20.090782 5.300715 1.939896 1.375280 -10.901452 3.580168 
-62.516392 51.856812 68.028038 1.406250 2.275391 -28.944925 44.921143 -7.870454 -2.773468 -11.396484 12.294922 8.691407 51.553619 8.070152 2.616707 -80.283203 -10.390623 -3.007813 2.000000 -2.000000 0.000000 -35.136719 -7.509767 -28.300783 -48.516876 -1.560842 -1.655834 -37.742302 44.101830 -26.679443 -2.000000 2.000000 0.000000 43.398438 -25.283203 -32.123310 50.818169 1.380504 -2.253576 37.559769 -40.593922 -24.844095 2.841803 9.588473 -9.751012 11.617331 -5.212952 -2.016844 -10.767795 6.129690 -11.453738 -20.357090 -10.378152 -7.669781 21.152397 5.243874 2.061242 0.895111 -10.243868 3.493418 
-62.911167 51.785645 68.523888 1.230469 2.275391 -28.779295 44.605377 -7.016535 -2.906661 -11.025391 12.441406 8.468901 51.553619 8.070152 2.616707 -80.419922 -11.953124 -1.455078 2.000000 -2.000000 0.000000 -35.576172 -8.886718 -29.493692 -48.868435 -1.560842 -1.655834 -38.390118 44.303165 -27.616518 -2.000000 2.000000 0.000000 43.007813 -25.742188 -32.504242 50.619469 1.510176 -2.128690 37.332733 -40.194103 -25.213860 3.611361 9.865117 -9.880286 11.843729 -5.624846 -1.554556 -10.969579 5.597376 -11.070590 -19.838070 -10.591950 -6.966888 22.035759 5.272413 1.694706 0.760095 -10.104407 4.098923 
-63.290157 51.738201 69.021187 0.703125 2.089844 -28.466797 44.313068 -6.165871 -3.031275 -10.625000 12.744141 8.476563 51.553619 8.070152 2.616707 -79.580078 -12.275389 -0.861452 2.000000 -2.000000 0.000000 -36.123047 -9.795701 -30.227657 -49.035706 -1.749494 -1.703470 -38.162529 44.225777 -27.338087 -2.000000 2.000000 0.000000 43.056637 -25.498047 -33.232418 50.457310 1.380107 -1.911113 37.137012 -39.736874 -25.715786 4.656763 9.789469 -9.818214 12.376388 -5.613514 -1.610364 -10.567829 5.674492 -10.723896 -18.748888 -10.360657 -7.603559 22.548515 5.009700 2.167738 -0.012096 -10.198291 4.591951 
-63.584610 51.769829 69.429337 0.000000 1.748047 -27.617188 43.828480 -5.299068 -3.172287 -10.263672 12.880860 8.273663 51.553619 8.070152 2.616707 -77.568359 -11.376951 -1.152344 2.000000 -2.000000 0.000000 -36.455074 -9.189453 -30.636328 -49.035706 -1.749494 -1.703470 -38.190052 44.109493 -27.910690 -2.000000 2.000000 0.000000 43.417969 -24.960938 -34.017796 50.460430 1.220632 -2.028190 36.620064 -39.296913 -25.942421 5.173915 10.288529 -10.821835 13.959545 -5.558469 -1.753039 -10.190748 5.966844 -10.827195 -17.310402 -10.368134 -7.548614 23.438395 4.982647 2.403706 -0.514991 -10.644349 5.275219 
-63.863750 51.809368 69.708717 -0.537109 1.396487 -26.913786 43.495853 -4.729072 -3.133137 -9.892578 13.017580 8.234622 51.553619 8.070152 2.616707 -75.615234 -9.599608 -2.080078 2.000000 -2.000000 0.000000 -36.337891 -8.134766 -30.177158 -48.868435 -1.560842 -1.655834 -38.990208 44.033478 -28.498886 -2.000000 2.000000 0.000000 43.583984 -23.837891 -35.302734 50.466606 1.380503 -2.253576 36.769249 -39.165646 -26.138744 4.968904 10.169938 -11.549326 16.080124 -5.537438 -2.003895 -8.698195 5.771750 -10.405252 -15.708245 -10.152431 -7.680012 23.611902 4.960457 2.432923 -1.547155 -11.262656 5.403266 
-64.110344 51.943813 69.672638 -1.240234 1.044922 -26.044744 43.508018 -4.517750 -3.168571 -9.873047 13.183595 8.300782 51.553619 8.070152 2.616707 -74.580078 -7.626952 -3.134766 2.000000 -2.000000 0.000000 -36.279297 -6.533203 -29.472656 -48.692394 -1.560272 -1.646088 -38.905132 44.167027 -28.123430 -2.000000 2.000000 0.000000 44.736328 -22.294922 -37.210735 50.645290 1.210693 -2.361445 36.727467 -39.232510 -25.948408 4.756173 10.398946 -11.904469 18.022615 -5.633742 -2.236269 -5.893782 5.256507 -9.578015 -13.598805 -9.761247 -8.235385 22.548515 5.009702 2.167738 -2.280822 -11.601832 5.882687 
-64.432358 52.165234 69.127960 -1.767578 0.869141 -25.517576 43.495186 -4.389758 -3.036375 -9.873047 13.183595 8.300782 51.553619 8.070152 2.616707 -75.527344 -5.371093 -4.287109 2.000000 -2.000000 0.000000 -36.376953 -5.371094 -28.721622 -48.516876 -1.560842 -1.655834 -38.545696 44.465778 -27.577797 -2.000000 2.000000 0.000000 45.507813 -20.537111 -38.212894 50.645290 1.210693 -2.361445 36.800945 -39.704590 -25.808855 4.294671 10.939765 -11.554357 20.145927 -5.385695 -2.395128 -1.158276 2.883882 -7.074795 -11.156966 -9.222885 -8.443944 20.442972 5.281603 2.151909 -1.922308 -12.093977 5.609587 
-65.135315 52.465736 69.631943 -2.128906 0.683594 -25.341679 43.495186 -4.389758 -3.036375 -9.853516 13.349610 8.349609 51.553619 8.070152 2.616707 -77.509766 -2.880859 -5.693851 2.000000 -2.000000 0.000000 -36.923828 -3.867187 -27.685543 -48.341106 -1.551093 -1.656404 -38.644867 45.222809 -27.202150 -2.000000 2.000000 0.000000 45.624996 -19.941406 -37.402344 50.645290 1.210693 -2.361445 36.910885 -39.747856 -25.017284 2.314389 11.542106 -10.605371 22.793747 -5.431327 -2.693662 6.280097 0.636512 -3.123167 -8.376430 -8.590193 -8.986627 17.443668 5.397867 1.667106 -1.404263 -12.147388 5.834229 
